<svg width="600" height="600" viewBox="0 0 600 600" fill="none" xmlns="http://www.w3.org/2000/svg">
<path d="M300 595C462.924 595 595 462.924 595 300C595 137.076 462.924 5 300 5C137.076 5 5 137.076 5 300C5 462.924 137.076 595 300 595Z" fill="#A8DB1F"/>
<path d="M183.795 398.024C193.532 398.024 201.959 394.531 208.846 387.644C215.732 380.757 219.225 372.327 219.225 362.593C219.225 352.859 215.732 344.429 208.846 337.539C201.956 330.655 193.529 327.162 183.795 327.162C174.058 327.162 165.628 330.655 158.744 337.542C151.857 344.429 148.364 352.856 148.364 362.593C148.364 372.33 151.854 380.757 158.744 387.644C165.633 394.531 174.06 398.024 183.795 398.024Z" fill="#441B14"/>
<path d="M239.783 428.826C239.248 425.834 238.549 422.989 237.712 420.37C236.799 417.517 235.563 414.712 234.038 412.027C232.371 409.098 230.39 406.523 228.146 404.376C225.668 402.006 222.676 400.117 219.246 398.757C215.845 397.411 212.121 396.729 208.173 396.729C204.864 396.729 202.271 398.238 199.89 399.786C198.465 400.718 196.851 401.757 195.061 402.899C194.308 403.379 192.865 404.13 190.256 404.972C186.382 406.224 182.716 406.224 178.839 404.972C176.233 404.13 174.787 403.379 174.039 402.904C172.244 401.757 170.632 400.718 169.197 399.781C166.824 398.238 164.231 396.729 160.922 396.729C156.975 396.729 153.248 397.411 149.852 398.757C146.424 400.114 143.429 402.006 140.944 404.382C138.703 406.528 136.724 409.1 135.06 412.029C133.535 414.712 132.299 417.517 131.386 420.373C130.548 422.987 129.853 425.832 129.315 428.824C128.793 431.74 128.436 434.527 128.257 437.104C128.087 439.547 128 442.08 128 444.634C128 454.751 132.323 460.992 135.952 464.446C141.086 469.336 147.734 471.811 155.707 471.811H213.391C221.364 471.811 228.012 469.333 233.148 464.446C236.775 460.995 241.1 454.754 241.1 444.631C241.098 442.062 241.011 439.529 240.841 437.101C240.662 434.532 240.308 431.747 239.783 428.826Z" fill="#441B14"/>
<path d="M379.266 362.593C379.266 372.33 382.756 380.757 389.646 387.644C396.535 394.531 404.962 398.024 414.694 398.024C424.431 398.024 432.861 394.531 439.747 387.644C446.634 380.757 450.125 372.327 450.125 362.593C450.125 352.859 446.634 344.429 439.745 337.539C432.858 330.655 424.428 327.162 414.694 327.162C404.957 327.162 396.53 330.655 389.643 337.542C382.756 344.429 379.266 352.859 379.266 362.593Z" fill="#441B14"/>
<path d="M471.743 437.096C471.565 434.527 471.208 431.745 470.685 428.826C470.147 425.834 469.452 422.989 468.612 420.37C467.699 417.517 466.463 414.712 464.938 412.027C463.274 409.098 461.292 406.523 459.048 404.376C456.571 402.006 453.576 400.117 450.146 398.757C446.747 397.411 443.02 396.729 439.076 396.729C435.764 396.729 433.171 398.238 430.793 399.786C429.365 400.718 427.754 401.757 425.964 402.899C425.211 403.379 423.764 404.13 421.158 404.972C417.284 406.224 413.615 406.224 409.739 404.972C407.133 404.13 405.687 403.379 404.939 402.904C403.144 401.757 401.532 400.718 400.099 399.781C397.727 398.238 395.134 396.729 391.822 396.729C387.874 396.729 384.15 397.411 380.751 398.757C377.324 400.117 374.329 402.006 371.844 404.382C369.605 406.526 367.626 409.1 365.96 412.029C364.435 414.712 363.199 417.517 362.285 420.373C361.448 422.989 360.753 425.832 360.215 428.824C359.692 431.742 359.335 434.527 359.157 437.104C358.986 439.542 358.902 442.077 358.902 444.634C358.902 454.751 363.225 460.992 366.852 464.446C371.988 469.336 378.636 471.811 386.609 471.811H444.293C452.267 471.811 458.912 469.333 464.048 464.446C467.678 460.995 472 454.754 472 444.631C472 442.059 471.914 439.524 471.743 437.096Z" fill="#441B14"/>
<path d="M299.244 198.859C308.981 198.859 317.408 195.369 324.295 188.479C331.181 181.593 334.675 173.165 334.675 163.428C334.675 153.694 331.184 145.267 324.295 138.377C317.408 131.493 308.978 128 299.244 128C289.507 128 281.08 131.491 274.193 138.38C267.306 145.267 263.813 153.694 263.813 163.431C263.813 173.165 267.306 181.595 274.196 188.482C281.082 195.369 289.512 198.859 299.244 198.859Z" fill="#441B14"/>
<path d="M356.293 237.938C356.112 235.369 355.757 232.589 355.235 229.668C354.697 226.676 354.002 223.831 353.162 221.212C352.248 218.359 351.012 215.551 349.487 212.871C347.821 209.94 345.839 207.365 343.598 205.218C341.121 202.848 338.126 200.959 334.693 199.599C331.292 198.253 327.568 197.57 323.623 197.57C320.311 197.57 317.718 199.079 315.34 200.628C313.915 201.56 312.301 202.599 310.514 203.741C309.758 204.221 308.312 204.971 305.705 205.814C301.837 207.063 298.165 207.066 294.286 205.811C291.685 204.971 290.239 204.221 289.489 203.743C287.693 202.596 286.079 201.557 284.649 200.625C282.279 199.079 279.686 197.57 276.371 197.57C272.424 197.57 268.7 198.253 265.301 199.599C261.871 200.956 258.876 202.848 256.394 205.223C254.152 207.368 252.173 209.942 250.509 212.869C248.987 215.548 247.751 218.356 246.835 221.215C245.998 223.831 245.3 226.674 244.764 229.665C244.242 232.581 243.885 235.366 243.704 237.946C243.536 240.384 243.452 242.917 243.452 245.473C243.452 255.593 247.772 261.831 251.402 265.288C256.538 270.175 263.183 272.652 271.159 272.652H328.84C336.816 272.652 343.462 270.175 348.598 265.288C352.227 261.834 356.55 255.596 356.55 245.47C356.547 242.901 356.463 240.366 356.293 237.938Z" fill="#441B14"/>
<path d="M330.788 428.17H267.7C262.131 428.17 257.614 432.684 257.614 438.256C257.614 443.825 262.131 448.342 267.7 448.342H330.788C336.36 448.342 340.877 443.825 340.877 438.256C340.877 432.684 336.36 428.17 330.788 428.17Z" fill="#441B14"/>
<path d="M238.198 279.825C233.671 276.581 227.369 277.623 224.125 282.15L206.832 306.28C203.588 310.807 204.628 317.109 209.158 320.355C210.937 321.631 212.989 322.242 215.023 322.242C218.165 322.242 221.262 320.78 223.233 318.032L240.523 293.9C243.767 289.373 242.728 283.071 238.198 279.825Z" fill="#441B14"/>
<path d="M383.467 322.244C385.498 322.244 387.553 321.633 389.333 320.355C393.863 317.111 394.902 310.809 391.658 306.282L374.365 282.15C371.121 277.622 364.82 276.58 360.292 279.827C355.763 283.071 354.723 289.372 357.967 293.902L375.257 318.032C377.228 320.782 380.323 322.244 383.467 322.244Z" fill="#441B14"/>
</svg>
